<svg id="Gmail" xmlns="http://www.w3.org/2000/svg" width="24" height="24" viewBox="0 0 24 24">
  <circle id="Ellipse_23" data-name="Ellipse 23" cx="12" cy="12" r="12" fill="#fff"/>
  <g id="gmail-2" data-name="gmail" transform="translate(4.8 6)">
    <path id="Path_10" data-name="Path 10" d="M10.009,13.275,3.241,8.661A1.788,1.788,0,0,1,2.75,6.294a1.538,1.538,0,0,1,2.209-.526L9.924,9.154,14.383,5.81a1.533,1.533,0,0,1,2.228.421,1.793,1.793,0,0,1-.393,2.387Z" transform="translate(-2.5 -5.5)" fill="#ea4435"/>
    <path id="Path_11" data-name="Path 11" d="M1.067,0H3.2V10.286A1.66,1.66,0,0,1,1.6,12h0A1.66,1.66,0,0,1,0,10.286V1.143A1.107,1.107,0,0,1,1.067,0Z" transform="translate(14.4 12) rotate(180)" fill="#00ac47"/>
    <path id="Path_12" data-name="Path 12" d="M26.676,6.967c0-.034,0-.069-.011-.1-.01-.052-.029-.1-.044-.152a1.762,1.762,0,0,0-.051-.171c-.011-.027-.027-.051-.039-.077a1.743,1.743,0,0,0-.115-.22c-.021-.033-.048-.061-.072-.093a1.7,1.7,0,0,0-.131-.163c-.035-.037-.076-.068-.114-.1a1.63,1.63,0,0,0-.128-.106c-.042-.03-.089-.052-.133-.078a1.554,1.554,0,0,0-.142-.076,1.526,1.526,0,0,0-.148-.049,1.443,1.443,0,0,0-.15-.044,1.524,1.524,0,0,0-.19-.021c-.04,0-.081-.011-.121-.01a1.486,1.486,0,0,0-.225.024c-.03,0-.06,0-.09.011q-.151.049-.3.1c-.027.013-.052.031-.078.045a1.672,1.672,0,0,0-.893,1.53v3.293L26.017,8.62a1.7,1.7,0,0,0,.659-1.653Z" transform="translate(-12.3 -5.501)" fill="#ffba00"/>
    <path id="Path_13" data-name="Path 13" d="M4.1,5.5h0A1.66,1.66,0,0,1,5.7,7.214V17.5H3.567A1.107,1.107,0,0,1,2.5,16.357V7.214A1.66,1.66,0,0,1,4.1,5.5Z" transform="translate(-2.5 -5.5)" fill="#4285f4"/>
    <path id="Path_14" data-name="Path 14" d="M2.524,6.967c0-.034,0-.069.011-.1.01-.052.029-.1.044-.152a1.762,1.762,0,0,1,.051-.171c.011-.027.027-.051.039-.077a1.736,1.736,0,0,1,.115-.22c.021-.033.048-.061.072-.093a1.7,1.7,0,0,1,.131-.163c.035-.037.076-.068.115-.1a1.619,1.619,0,0,1,.128-.106c.042-.03.089-.052.133-.078A1.547,1.547,0,0,1,3.5,5.627a1.536,1.536,0,0,1,.148-.049,1.439,1.439,0,0,1,.15-.044,1.525,1.525,0,0,1,.19-.021c.041,0,.081-.011.121-.01a1.485,1.485,0,0,1,.225.024c.03,0,.06,0,.09.011a1.475,1.475,0,0,1,.153.051,1.482,1.482,0,0,1,.149.051c.027.013.051.031.078.045a1.56,1.56,0,0,1,.2.12A1.749,1.749,0,0,1,5.7,7.215v3.293L3.183,8.62A1.7,1.7,0,0,1,2.524,6.967Z" transform="translate(-2.501 -5.501)" fill="#c52528"/>
  </g>
</svg>
