<svg id="Gmail" xmlns="http://www.w3.org/2000/svg" width="40" height="40" viewBox="0 0 40 40">
  <circle id="Ellipse_23" data-name="Ellipse 23" cx="20" cy="20" r="20" fill="#52606d"/>
  <g id="gmail-2" data-name="gmail" transform="translate(5.5 4.5)">
    <path id="Path_10" data-name="Path 10" d="M15.015,18.459,3.736,10.768a2.98,2.98,0,0,1-.818-3.944A2.563,2.563,0,0,1,6.6,5.947l8.275,5.643L22.3,6.017a2.556,2.556,0,0,1,3.714.7,2.989,2.989,0,0,1-.656,3.979Z" transform="translate(0 0)" fill="#fff"/>
    <path id="Path_11" data-name="Path 11" d="M1.778,0H5.333V17.143A2.767,2.767,0,0,1,2.667,20h0A2.767,2.767,0,0,1,0,17.143V1.9A1.845,1.845,0,0,1,1.778,0Z" transform="translate(26.5 25.5) rotate(180)" fill="#fff"/>
    <path id="Path_12" data-name="Path 12" d="M28.794,7.944c-.008-.057-.007-.116-.018-.173-.017-.087-.049-.168-.073-.253a2.938,2.938,0,0,0-.085-.285c-.018-.045-.045-.085-.065-.129a2.9,2.9,0,0,0-.191-.366c-.036-.055-.08-.1-.119-.155a2.839,2.839,0,0,0-.218-.271c-.059-.062-.126-.113-.191-.169a2.717,2.717,0,0,0-.213-.177c-.07-.049-.148-.087-.222-.129a2.591,2.591,0,0,0-.237-.127,2.543,2.543,0,0,0-.246-.082,2.4,2.4,0,0,0-.25-.074,2.54,2.54,0,0,0-.317-.034c-.067-.005-.134-.018-.2-.017a2.476,2.476,0,0,0-.375.04c-.05.008-.1.007-.15.018q-.252.082-.5.17c-.046.021-.086.052-.13.076A2.786,2.786,0,0,0,23.5,8.357v5.488L27.7,10.7a2.837,2.837,0,0,0,1.1-2.755Z" transform="translate(-2.333 0)" fill="#fff"/>
    <path id="Path_13" data-name="Path 13" d="M5.167,5.5h0A2.767,2.767,0,0,1,7.833,8.357V25.5H4.278A1.845,1.845,0,0,1,2.5,23.6V8.357A2.767,2.767,0,0,1,5.167,5.5Z" transform="translate(0 0)" fill="#fff"/>
    <path id="Path_14" data-name="Path 14" d="M2.539,7.944c.008-.057.007-.116.018-.173.017-.087.049-.168.073-.253a2.937,2.937,0,0,1,.085-.285c.018-.045.045-.085.065-.129a2.893,2.893,0,0,1,.191-.366c.036-.055.08-.1.119-.155a2.838,2.838,0,0,1,.218-.271c.059-.062.126-.113.191-.169a2.7,2.7,0,0,1,.213-.177c.07-.049.148-.087.222-.129a2.579,2.579,0,0,1,.237-.127,2.56,2.56,0,0,1,.246-.082,2.4,2.4,0,0,1,.25-.074,2.542,2.542,0,0,1,.317-.034c.068-.005.134-.018.2-.017a2.475,2.475,0,0,1,.375.04c.05.008.1.007.15.018a2.458,2.458,0,0,1,.254.085,2.469,2.469,0,0,1,.248.085c.046.021.086.052.13.076a2.6,2.6,0,0,1,.333.2A2.915,2.915,0,0,1,7.833,8.357v5.488L3.638,10.7A2.839,2.839,0,0,1,2.539,7.944Z" transform="translate(0 0)" fill="#fff"/>
  </g>
</svg>
