<svg id="Gmail" xmlns="http://www.w3.org/2000/svg" width="24" height="24" viewBox="0 0 24 24">
  <g id="gmail-2" data-name="gmail">
    <rect id="Rectangle_355" data-name="Rectangle 355" width="24" height="24" rx="12" fill="#fff"/>
    <g id="gmail-3" data-name="gmail" transform="translate(1.335 0.149)">
      <path id="Path_3058" data-name="Path 3058" d="M11.016,13.73,3.341,8.845A1.814,1.814,0,1,1,5.289,5.784L10.92,9.367l5.056-3.539A1.814,1.814,0,1,1,18.056,8.8Z" transform="translate(0 0)" fill="#ea4435"/>
      <path id="Path_3059" data-name="Path 3059" d="M1.21,0H3.629V10.887A1.814,1.814,0,0,1,1.814,12.7h0A1.814,1.814,0,0,1,0,10.887V1.21A1.21,1.21,0,0,1,1.21,0Z" transform="translate(18.83 18.201) rotate(180)" fill="#00ac47"/>
      <path id="Path_3060" data-name="Path 3060" d="M27.1,7.053c-.005-.036,0-.073-.012-.11-.012-.056-.033-.107-.05-.16a1.773,1.773,0,0,0-.058-.181c-.012-.029-.031-.054-.044-.082a1.8,1.8,0,0,0-.13-.233c-.024-.035-.054-.065-.081-.1a1.832,1.832,0,0,0-.148-.172c-.04-.039-.086-.072-.13-.107A1.826,1.826,0,0,0,26.3,5.8c-.048-.031-.1-.055-.151-.082s-.106-.058-.161-.081-.111-.035-.167-.052a1.725,1.725,0,0,0-.17-.047,1.847,1.847,0,0,0-.216-.022c-.046,0-.091-.011-.137-.011a1.8,1.8,0,0,0-.255.026c-.034.005-.068,0-.1.012q-.171.052-.341.108c-.031.013-.058.033-.089.048A1.755,1.755,0,0,0,23.5,7.316V10.8l2.855-2A1.747,1.747,0,0,0,27.1,7.053Z" transform="translate(-8.299 -0.001)" fill="#ffba00"/>
      <path id="Path_3061" data-name="Path 3061" d="M4.314,5.5h0A1.814,1.814,0,0,1,6.129,7.314V18.2H3.71a1.21,1.21,0,0,1-1.21-1.21V7.314A1.814,1.814,0,0,1,4.314,5.5Z" fill="#4285f4"/>
      <path id="Path_3062" data-name="Path 3062" d="M2.527,7.053c.005-.036,0-.073.012-.11.012-.056.033-.107.05-.16A1.773,1.773,0,0,1,2.647,6.6c.012-.029.031-.054.045-.082a1.8,1.8,0,0,1,.13-.233c.024-.035.054-.065.081-.1a1.831,1.831,0,0,1,.148-.172c.04-.039.086-.072.13-.107A1.815,1.815,0,0,1,3.327,5.8c.048-.031.1-.055.151-.082a1.8,1.8,0,0,1,.161-.081c.054-.022.111-.035.167-.052a1.72,1.72,0,0,1,.17-.047,1.848,1.848,0,0,1,.216-.022c.046,0,.091-.011.137-.011a1.8,1.8,0,0,1,.255.026c.034.005.068,0,.1.012a1.757,1.757,0,0,1,.173.054,1.763,1.763,0,0,1,.168.054c.031.013.058.033.089.048a1.757,1.757,0,0,1,1.012,1.62V10.8l-2.855-2A1.747,1.747,0,0,1,2.527,7.053Z" transform="translate(0 -0.001)" fill="#c52528"/>
    </g>
  </g>
</svg>
