<svg id="Instgram" xmlns="http://www.w3.org/2000/svg" xmlns:xlink="http://www.w3.org/1999/xlink" width="24" height="24" viewBox="0 0 24 24">
  <defs>
    <linearGradient id="linear-gradient" x1="0.091" y1="0.909" x2="0.909" y2="0.091" gradientUnits="objectBoundingBox">
      <stop offset="0" stop-color="#ffc107"/>
      <stop offset="0.507" stop-color="#f44336"/>
      <stop offset="0.99" stop-color="#9c27b0"/>
    </linearGradient>
    <linearGradient id="linear-gradient-2" x1="0.147" y1="0.854" x2="0.854" y2="0.147" xlink:href="#linear-gradient"/>
    <linearGradient id="linear-gradient-3" x1="0.146" y1="0.854" x2="0.854" y2="0.146" xlink:href="#linear-gradient"/>
  </defs>
  <path id="Path_34" data-name="Path 34" d="M12,0A12,12,0,1,1,0,12,12,12,0,0,1,12,0Z" fill="#9aa5b1"/>
  <g id="instagram" transform="translate(6 6)">
    <path id="Path_15" data-name="Path 15" d="M8.25,0H3.75A3.75,3.75,0,0,0,0,3.75v4.5A3.75,3.75,0,0,0,3.75,12h4.5A3.75,3.75,0,0,0,12,8.25V3.75A3.75,3.75,0,0,0,8.25,0Zm2.625,8.25A2.628,2.628,0,0,1,8.25,10.875H3.75A2.628,2.628,0,0,1,1.125,8.25V3.75A2.628,2.628,0,0,1,3.75,1.125h4.5A2.628,2.628,0,0,1,10.875,3.75Z" fill="url(#linear-gradient)"/>
    <path id="Path_16" data-name="Path 16" d="M7,4a3,3,0,1,0,3,3A3,3,0,0,0,7,4ZM7,8.875A1.875,1.875,0,1,1,8.875,7,1.877,1.877,0,0,1,7,8.875Z" transform="translate(-1 -1)" fill="url(#linear-gradient-2)"/>
    <circle id="Ellipse_8" data-name="Ellipse 8" cx="0.4" cy="0.4" r="0.4" transform="translate(8.825 2.375)" fill="url(#linear-gradient-3)"/>
  </g>
</svg>
