<svg xmlns="http://www.w3.org/2000/svg" width="32" height="32" viewBox="0 0 32 32">
  <g id="insta" transform="translate(-127.9 -0.13)">
    <path id="Path_57" data-name="Path 57" d="M143.9,32.13a16,16,0,1,1,16-16,16,16,0,0,1-16,16Zm-9.852-16h-.024v3.612a9.955,9.955,0,0,0,.092,1.373,5.161,5.161,0,0,0,3.14,4.269,7,7,0,0,0,2.745.526h7.486a10.6,10.6,0,0,0,1.621-.122,5.109,5.109,0,0,0,4.24-3.315,7.024,7.024,0,0,0,.438-2.536V12.547a10.382,10.382,0,0,0-.092-1.4,5.14,5.14,0,0,0-3.32-4.342,6.98,6.98,0,0,0-2.5-.453h-7.934a6.708,6.708,0,0,0-2.852.6,5.181,5.181,0,0,0-3.018,4.731C133.97,13.161,134.043,14.67,134.043,16.13Z" fill="#fff"/>
    <path id="Path_58" data-name="Path 58" d="M152.264,16.679h3.894a6.153,6.153,0,0,1,1.3.151,3.475,3.475,0,0,1,2.789,3.14,9.017,9.017,0,0,1,.063,1.085q0,3.651,0,7.3a5.842,5.842,0,0,1-.287,1.786,3.256,3.256,0,0,1-3.1,2.322c-1.859.1-3.729.092-5.593.1-1.236,0-2.478,0-3.709-.088a3.519,3.519,0,0,1-3.364-3.3,8.347,8.347,0,0,1-.058-.974c0-2.463-.024-4.926,0-7.389a5.589,5.589,0,0,1,.292-1.723,3.3,3.3,0,0,1,3.1-2.327c1.295-.1,2.6-.073,3.894-.1h.769Zm5.2,7.934a5.184,5.184,0,1,0-1.515,3.677A5.2,5.2,0,0,0,157.463,24.614Z" transform="translate(-8.359 -8.484)" fill="#fff"/>
    <path id="Path_59" data-name="Path 59" d="M160.588,29.464a3.344,3.344,0,1,1-.979-2.374A3.354,3.354,0,0,1,160.588,29.464Z" transform="translate(-13.334 -13.334)" fill="#fff"/>
  </g>
</svg>
