<svg xmlns="http://www.w3.org/2000/svg" width="32" height="31.988" viewBox="0 0 32 31.988">
  <path id="Path_60" data-name="Path 60" d="M14.98,0h2c.533.068,1.071.121,1.6.208a16.045,16.045,0,0,1,13.142,13.03c.107.582.165,1.168.247,1.754v2c-.048.378-.087.761-.141,1.139a15.463,15.463,0,0,1-4.415,9,15.527,15.527,0,0,1-14.736,4.492A15.289,15.289,0,0,1,3.233,25.62,15.507,15.507,0,0,1,.142,13.835,15.507,15.507,0,0,1,4.59,4.788,15.667,15.667,0,0,1,13.225.247C13.807.145,14.4.082,14.98,0ZM8.273,9.406a3.392,3.392,0,0,0-.509,1.938,3.736,3.736,0,0,0,1.551,2.907l-.048.087L7.74,13.9a3.751,3.751,0,0,0,2.825,3.581v.073H9.029a3.673,3.673,0,0,0,1.279,1.832,3.94,3.94,0,0,0,2.137.761,7.584,7.584,0,0,1-5.379,1.526l.189.136a10.192,10.192,0,0,0,9.982.446c3.906-1.938,5.737-5.258,5.854-9.571a.567.567,0,0,1,.237-.523,5.36,5.36,0,0,0,.722-.644c.286-.3.548-.63.863-1l-1.938.523-.034-.078A3.731,3.731,0,0,0,24.395,9.1l-2.016.722a.431.431,0,0,1-.485-.121,3.668,3.668,0,0,0-6.106,2.268,9.74,9.74,0,0,0,0,1.25A10.506,10.506,0,0,1,8.273,9.406Z" transform="translate(0.026)" fill="#fff"/>
</svg>
