<svg xmlns="http://www.w3.org/2000/svg" width="31.992" height="32" viewBox="0 0 31.992 32">
  <path id="Path_56" data-name="Path 56" d="M270.852,32.163h-2c-.39-.049-.78-.093-1.17-.146a15.735,15.735,0,0,1-8.391-3.869,15.769,15.769,0,0,1-5.18-9.2c-.107-.595-.166-1.194-.249-1.788V15.19c.049-.395.088-.785.146-1.174A16.016,16.016,0,0,1,269.463.176a14.96,14.96,0,0,1,8.46,2.2,15.657,15.657,0,0,1,7.914,13.367,14.941,14.941,0,0,1-2.222,8.547,15.769,15.769,0,0,1-11.008,7.626C272.027,32.026,271.437,32.08,270.852,32.163Zm.38-6.179V16.725h2.6l.336-3.265h-2.924V11.706c0-.838.239-1.077,1.077-1.077h1.793V7.481a.487.487,0,0,0-.127-.034c-1,0-2-.054-3,0a3.359,3.359,0,0,0-3.509,3.031,20.664,20.664,0,0,0-.1,2.583v.4H265.57v3.27h1.818v9.259Z" transform="translate(-253.86 -0.163)" fill="#fff"/>
</svg>
