<svg xmlns="http://www.w3.org/2000/svg" width="23.994" height="24" viewBox="0 0 23.994 24">
  <path id="Path_1169" data-name="Path 1169" d="M266.6,24.163h-1.5c-.292-.037-.585-.069-.877-.11a11.8,11.8,0,0,1-6.294-2.9,11.827,11.827,0,0,1-3.885-6.9c-.08-.446-.124-.9-.186-1.341v-1.48c.037-.3.066-.588.11-.881A12.012,12.012,0,0,1,265.563.173a11.22,11.22,0,0,1,6.345,1.648,11.743,11.743,0,0,1,5.935,10.025,11.206,11.206,0,0,1-1.667,6.41,11.827,11.827,0,0,1-8.256,5.72C267.485,24.06,267.043,24.1,266.6,24.163Zm.285-4.634V12.584h1.948l.252-2.449H266.9V8.82c0-.629.179-.808.808-.808h1.345V5.651a.365.365,0,0,0-.1-.026c-.749,0-1.5-.04-2.248,0A2.519,2.519,0,0,0,264.075,7.9,15.5,15.5,0,0,0,264,9.836v.3h-1.356v2.452h1.363v6.944Z" transform="translate(-253.86 -0.163)" fill="#fff"/>
</svg>
