<svg id="phone" xmlns="http://www.w3.org/2000/svg" width="24" height="24" viewBox="0 0 24 24">
  <path id="Path_3043" data-name="Path 3043" d="M24,12A12,12,0,1,1,12,0,12,12,0,0,1,24,12" fill="#7b8794"/>
  <path id="Path_3044" data-name="Path 3044" d="M26.182,30a.39.39,0,0,1-.126-.019c-.085-.028-.2-.058-.333-.1-1.764-.488-7.131-1.974-9.714-9.986A.405.405,0,0,1,16,19.678c.013-.052.339-1.312,2.5-1.672a.4.4,0,0,1,.238.032,3.716,3.716,0,0,1,2.111,2.716.408.408,0,0,1-.106.313,4.388,4.388,0,0,0-1.12,1.718,7.717,7.717,0,0,0,3.682,3.742,5.476,5.476,0,0,0,1.737-1.084.405.405,0,0,1,.262-.1.388.388,0,0,1,.1.013,3.881,3.881,0,0,1,2.544,1.771.408.408,0,0,1,.039.25,3.315,3.315,0,0,1-1.641,2.584.408.408,0,0,1-.169.037" transform="translate(-9.993 -11.25)" fill="#638da0"/>
  <path id="Path_3045" data-name="Path 3045" d="M20.854,18.754a3.716,3.716,0,0,0-2.111-2.716.4.4,0,0,0-.238-.032c-2.165.359-2.491,1.619-2.5,1.672a.405.405,0,0,0,.008.221c2.583,8.012,7.95,9.5,9.714,9.986.136.038.248.068.333.1a.408.408,0,0,0,.3-.017,3.315,3.315,0,0,0,1.641-2.584.408.408,0,0,0-.039-.25,3.881,3.881,0,0,0-2.544-1.771.4.4,0,0,0-.361.086,5.466,5.466,0,0,1-1.737,1.084,7.715,7.715,0,0,1-3.683-3.742,4.388,4.388,0,0,1,1.121-1.718.408.408,0,0,0,.106-.314" transform="translate(-9.993 -10)" fill="#fffffe"/>
</svg>
