<svg id="Pinterest" xmlns="http://www.w3.org/2000/svg" width="24" height="24" viewBox="0 0 24 24">
  <circle id="Ellipse_9" data-name="Ellipse 9" cx="12" cy="12" r="12" fill="#e13138"/>
  <path id="Path_20" data-name="Path 20" d="M159.65,133.9c-3.355,0-5.05,2.37-5.05,4.347a2.673,2.673,0,0,0,1.445,2.658.243.243,0,0,0,.355-.173c.034-.12.182-.432.216-.557a.337.337,0,0,0-.1-.389,1.776,1.776,0,0,1-.461-1.281,3.21,3.21,0,0,1,3.4-3.45,2.651,2.651,0,0,1,2.938,2.7c0,2.006-.9,3.637-2.242,3.637a1.033,1.033,0,0,1-1.114-1.276,14.865,14.865,0,0,0,.624-2.471.883.883,0,0,0-.95-.979c-.754,0-1.363.705-1.363,1.737a1.891,1.891,0,0,0,.216.984s-.763,3.344-.9,3.91a7.7,7.7,0,0,0-.019,2.644.094.094,0,0,0,.168.038,7.441,7.441,0,0,0,1.277-2.279c.086-.307.5-1.91.5-1.91a1.976,1.976,0,0,0,1.723.758c2.27,0,3.811-1.934,3.811-4.659A4.191,4.191,0,0,0,159.65,133.9Z" transform="translate(-147.179 -127.475)" fill="#fff"/>
</svg>
