<svg id="Snap_Chat" data-name="Snap Chat" xmlns="http://www.w3.org/2000/svg" width="24" height="24" viewBox="0 0 24 24">
  <g id="snapchat">
    <path id="Path_3056" data-name="Path 3056" d="M0,12A12,12,0,1,1,12,24,12,12,0,0,1,0,12Z" fill="#ffe400"/>
    <path id="Path_3057" data-name="Path 3057" d="M17.723,12h-.032l-.22,0a3.718,3.718,0,0,0-1.463.309,3.261,3.261,0,0,0-.933.617,3.483,3.483,0,0,0-.78,1.118,6.346,6.346,0,0,0-.164,2.583h0c.006.093.012.19.018.284a.5.5,0,0,1-.21.04,1.392,1.392,0,0,1-.57-.153.511.511,0,0,0-.217-.045.772.772,0,0,0-.383.107.53.53,0,0,0-.271.346.477.477,0,0,0,.182.449,1.563,1.563,0,0,0,.477.273c.054.021.119.042.187.063.237.075.6.189.689.408a.529.529,0,0,1-.061.435l-.007.014a4.212,4.212,0,0,1-.644,1,3.622,3.622,0,0,1-.778.686,2.866,2.866,0,0,1-1.092.425.3.3,0,0,0-.251.312.394.394,0,0,0,.031.13h0a.8.8,0,0,0,.433.371,4.963,4.963,0,0,0,1.252.326,1.531,1.531,0,0,1,.076.275c.021.1.043.2.074.3a.328.328,0,0,0,.343.25,1.651,1.651,0,0,0,.294-.041,3.327,3.327,0,0,1,.672-.076,2.945,2.945,0,0,1,.48.041,2.284,2.284,0,0,1,.9.463A2.907,2.907,0,0,0,17.521,24l.065,0,.093,0a2.906,2.906,0,0,0,1.768-.688h0a2.285,2.285,0,0,1,.9-.462,2.95,2.95,0,0,1,.48-.041,3.361,3.361,0,0,1,.672.071,1.6,1.6,0,0,0,.294.036H21.8a.324.324,0,0,0,.329-.245c.03-.1.052-.2.073-.3a1.561,1.561,0,0,1,.076-.274,4.969,4.969,0,0,0,1.252-.326.8.8,0,0,0,.433-.369A.382.382,0,0,0,24,21.272a.3.3,0,0,0-.251-.312,3.7,3.7,0,0,1-2.514-2.109l-.007-.014a.529.529,0,0,1-.06-.435c.093-.219.452-.333.689-.408.069-.022.133-.042.187-.063a1.439,1.439,0,0,0,.511-.305.483.483,0,0,0,.155-.349A.55.55,0,0,0,22.3,16.8a.737.737,0,0,0-.279-.053.626.626,0,0,0-.259.053,1.461,1.461,0,0,1-.533.152.484.484,0,0,1-.177-.039c0-.08.01-.162.015-.248l0-.037a6.349,6.349,0,0,0-.163-2.584,3.488,3.488,0,0,0-.783-1.121,3.27,3.27,0,0,0-.937-.617A3.735,3.735,0,0,0,17.723,12Z" transform="translate(-5.6 -6)" fill="#fff"/>
  </g>
</svg>
