<svg id="Telegram" xmlns="http://www.w3.org/2000/svg" width="24" height="24" viewBox="0 0 24 24">
  <rect id="Rectangle_55" data-name="Rectangle 55" width="24" height="24" rx="12" fill="#419fd9"/>
  <path id="Path_28" data-name="Path 28" d="M9.894,18.735q5.234-2.328,6.981-3.07C20.2,14.254,20.89,14.008,21.34,14a.776.776,0,0,1,.464.142.519.519,0,0,1,.17.331,2.2,2.2,0,0,1,.02.481c-.18,1.933-.96,6.623-1.356,8.787-.168.916-.5,1.223-.818,1.253-.7.065-1.223-.469-1.9-.92-1.054-.705-1.649-1.144-2.671-1.832-1.182-.8-.416-1.232.258-1.947.176-.187,3.239-3.031,3.3-3.289a.254.254,0,0,0-.056-.216.271.271,0,0,0-.248-.025q-.158.037-5.049,3.408a2.244,2.244,0,0,1-1.3.49,8.394,8.394,0,0,1-1.861-.45c-.75-.249-1.345-.38-1.294-.8Q9.044,19.081,9.894,18.735Z" transform="translate(-4.5 -7)" fill="#fff"/>
</svg>
