<svg id="Twitter" xmlns="http://www.w3.org/2000/svg" width="24" height="24" viewBox="0 0 24 24">
  <circle id="Ellipse_22" data-name="Ellipse 22" cx="12" cy="12" r="12" fill="#2daae1"/>
  <path id="Path_29" data-name="Path 29" d="M247.5,144.8a6.3,6.3,0,0,1-1.813.5,3.166,3.166,0,0,0,1.388-1.746,6.307,6.307,0,0,1-2.005.766,3.158,3.158,0,0,0-5.461,2.16,3.193,3.193,0,0,0,.081.72,8.964,8.964,0,0,1-6.507-3.3,3.16,3.16,0,0,0,.977,4.214,3.142,3.142,0,0,1-1.43-.395v.04a3.158,3.158,0,0,0,2.532,3.1,3.14,3.14,0,0,1-.832.111,3.2,3.2,0,0,1-.594-.056,3.161,3.161,0,0,0,2.949,2.192,6.356,6.356,0,0,1-4.674,1.307,8.977,8.977,0,0,0,13.821-7.563q0-.205-.01-.408A6.432,6.432,0,0,0,247.5,144.8Z" transform="translate(-227.809 -137.576)" fill="#fff"/>
</svg>
