<svg id="WhatsApp" xmlns="http://www.w3.org/2000/svg" width="24" height="24" viewBox="0 0 24 24">
  <g id="whatsapp-2" data-name="whatsapp">
    <rect id="Rectangle_356" data-name="Rectangle 356" width="24" height="24" rx="12" fill="#0dc143"/>
    <path id="Path_3046" data-name="Path 3046" d="M22.87,11.168a6.812,6.812,0,0,0-4.881-2.043,6.912,6.912,0,0,0-6.924,6.962,7.306,7.306,0,0,0,.908,3.443l-.984,3.595,3.67-.946a6.756,6.756,0,0,0,3.292.832,6.96,6.96,0,0,0,6.924-6.962A6.867,6.867,0,0,0,22.87,11.168Zm-4.881,10.67a5.621,5.621,0,0,1-2.913-.795l-.227-.113-2.195.568.568-2.157-.151-.227a5.743,5.743,0,1,1,7.908,1.854A5.516,5.516,0,0,1,17.989,21.839Zm3.33-4.2-.416-.189s-.605-.265-.984-.454c-.038,0-.076-.038-.113-.038a.547.547,0,0,0-.265.076s-.038.038-.568.643a.208.208,0,0,1-.189.114h-.038a.287.287,0,0,1-.151-.076l-.189-.076a3.678,3.678,0,0,1-1.1-.719c-.076-.076-.189-.151-.265-.227a4.226,4.226,0,0,1-.719-.908l-.038-.076c-.038-.038-.038-.076-.076-.151a.284.284,0,0,1,.038-.189s.151-.189.265-.3c.076-.076.113-.189.189-.265a.466.466,0,0,0,.076-.378,14.738,14.738,0,0,0-.605-1.438.438.438,0,0,0-.265-.189h-.416c-.076,0-.151.038-.227.038l-.038.038c-.076.038-.151.114-.227.151-.076.076-.114.151-.189.227a1.93,1.93,0,0,0-.416,1.173,2.245,2.245,0,0,0,.189.87l.038.114a6.3,6.3,0,0,0,1.4,1.93l.151.151a2.288,2.288,0,0,1,.3.3A6.761,6.761,0,0,0,19.2,19.228c.114.038.265.038.378.076h.378a1.4,1.4,0,0,0,.568-.151c.114-.076.189-.076.265-.151l.076-.076c.076-.076.151-.114.227-.189a1,1,0,0,0,.189-.227,2.169,2.169,0,0,0,.151-.53v-.265A.469.469,0,0,0,21.318,17.639Z" transform="translate(-5.494 -4.562)" fill="#fff"/>
  </g>
</svg>
