<svg id="WhatsApp-big" xmlns="http://www.w3.org/2000/svg" width="40" height="40" viewBox="0 0 40 40">
  <g id="whatsapp">
    <rect id="Rectangle_356" data-name="Rectangle 356" width="40" height="40" rx="20" fill="#0dc143"/>
    <path id="Path_3046" data-name="Path 3046" d="M30.79,12.53a11.353,11.353,0,0,0-8.135-3.405,11.519,11.519,0,0,0-11.541,11.6,12.177,12.177,0,0,0,1.514,5.739l-1.64,5.991,6.117-1.577a11.261,11.261,0,0,0,5.486,1.387,11.6,11.6,0,0,0,11.541-11.6A11.445,11.445,0,0,0,30.79,12.53ZM22.655,30.314A9.369,9.369,0,0,1,17.8,28.99l-.378-.189-3.658.946.946-3.595-.252-.378a9.572,9.572,0,1,1,13.18,3.09A9.194,9.194,0,0,1,22.655,30.314Zm5.55-7L27.511,23s-1.009-.441-1.64-.757c-.063,0-.126-.063-.189-.063a.911.911,0,0,0-.441.126s-.063.063-.946,1.072a.347.347,0,0,1-.315.189h-.063a.478.478,0,0,1-.252-.126l-.315-.126a6.13,6.13,0,0,1-1.829-1.2c-.126-.126-.315-.252-.442-.378a7.044,7.044,0,0,1-1.2-1.514l-.063-.126c-.063-.063-.063-.126-.126-.252a.473.473,0,0,1,.063-.315s.252-.315.442-.5c.126-.126.189-.315.315-.441a.777.777,0,0,0,.126-.631,24.563,24.563,0,0,0-1.009-2.4.73.73,0,0,0-.441-.315h-.694c-.126,0-.252.063-.378.063l-.063.063c-.126.063-.252.189-.378.252-.126.126-.189.252-.315.378a3.216,3.216,0,0,0-.694,1.955,3.741,3.741,0,0,0,.315,1.45l.063.189a10.506,10.506,0,0,0,2.333,3.216l.252.252a3.814,3.814,0,0,1,.5.5,11.268,11.268,0,0,0,4.541,2.4c.189.063.441.063.631.126h.631a2.339,2.339,0,0,0,.946-.252c.189-.126.315-.126.441-.252l.126-.126c.126-.126.252-.189.378-.315a1.672,1.672,0,0,0,.315-.378,3.614,3.614,0,0,0,.252-.883V23.44A.781.781,0,0,0,28.2,23.314Z" transform="translate(-1.831 -1.52)" fill="#fff"/>
  </g>
</svg>
